<svg width="535" height="412" viewBox="0 0 535 412" fill="none" xmlns="http://www.w3.org/2000/svg">
<path fill-rule="evenodd" clip-rule="evenodd" d="M281.101 23.7721C334.344 14.5032 396.304 -16.6693 439.47 11.5696C482.851 39.9489 451.774 101.527 468.117 146.116C484.182 189.948 545.018 223.446 533.577 268.328C522.176 313.055 459.278 330.187 414.735 355.534C372.329 379.665 332.023 412.364 281.101 411.997C230.331 411.631 190.792 378.409 149.094 353.619C106.344 328.204 59.6689 305.953 35.9947 266.279C9.73332 222.269 -15.38 166.872 11.583 123.174C38.5667 79.4421 110.448 79.1822 163.515 59.6102C202.684 45.1645 239.307 31.048 281.101 23.7721Z" fill="#557979" fill-opacity="0.15"/>
</svg>
