<svg width="476" height="409" viewBox="0 0 476 409" fill="none" xmlns="http://www.w3.org/2000/svg">
<path fill-rule="evenodd" clip-rule="evenodd" d="M231.612 2.20394C270.436 8.61821 290.573 47.2699 325.497 64.188C370.127 85.8081 436.231 74.5691 462.712 114.156C488.984 153.429 472 207.707 448.881 248.634C427.65 286.217 379.224 298.977 343.357 325.442C304.983 353.756 280.696 407.065 231.612 408.948C182.573 410.829 152.314 361.295 112.909 334.283C74.0643 307.655 16.3667 294.968 2.80059 252.096C-10.748 209.28 28.2289 169.129 47.7351 128.319C64.9195 92.3671 75.4907 51.9651 109.661 28.5286C144.012 4.96892 189.487 -4.75576 231.612 2.20394Z" fill="#557979" fill-opacity="0.15"/>
</svg>
